<?xml version="1.0" encoding="UTF-8"?>
<svg id="Capa_2" data-name="Capa 2" xmlns="http://www.w3.org/2000/svg" viewBox="0 0 73.12 73.12">
  <defs>
    <style>
      .cls-1 {
        fill: #fff;
      }

      .cls-2 {
        fill: #0e3450;
      }
    </style>
  </defs>
  <g id="Page_9" data-name="Page 9">
    <rect class="cls-2" y="0" width="73.12" height="73.12" rx="4.41" ry="4.41"/>
    <path class="cls-1" d="M6.06,17.31V55.81h61.01V17.31H6.06Zm27.74,10.16c.43-.74,1.07-1.53,1.93-2.38,1.03-.99,2.07-1.77,3.1-2.34,2.39-1.36,5.3-2.04,8.73-2.04,4.01,0,7.36,.92,10.05,2.77,1.06,.77,1.98,1.6,2.76,2.51,.78,.94,1.51,2.09,2.19,3.45l-4.04,.98c-.25-.48-.49-.92-.72-1.32-.66-.99-1.45-1.82-2.38-2.47-2.02-1.45-4.59-2.17-7.71-2.17-3.43,0-6.18,.84-8.28,2.51-.45,.31-.96,.82-1.51,1.53-.94,1.14-1.6,2.49-2,4.04h-4.1c.37-1.89,1.03-3.57,1.98-5.06Zm27.43,19.19c-2.9,3.83-7.43,5.75-13.6,5.75-4.06,0-7.48-1.01-10.28-3.02-.6-.45-1.21-.98-1.81-1.57-.81-.91-1.46-1.82-1.96-2.72-1.21-2.07-1.9-4.5-2.07-7.28H13.67v10.13h21.14v3.7H10V21.6H31.11v3.7H13.67v8.94h26.76v3.57h-4.91c.2,2.36,.87,4.4,2.05,6.13,1.61,2.38,4.09,3.89,7.44,4.51,.86,.14,1.88,.21,3.06,.21,4.28,0,7.47-1.29,9.56-3.87,.53-.62,1.02-1.39,1.47-2.3l4.01,.94c-.68,1.36-1.31,2.44-1.89,3.23Z"/>
  </g>
</svg>